<!DOCTYPE svg PUBLIC "-//W3C//DTD SVG 1.1//EN" "http://www.w3.org/Graphics/SVG/1.1/DTD/svg11.dtd">
<!-- Uploaded to: SVG Repo, www.svgrepo.com, Transformed by: SVG Repo Mixer Tools -->
<svg fill="#dc2626" version="1.1" id="Layer_1" xmlns="http://www.w3.org/2000/svg" xmlns:xlink="http://www.w3.org/1999/xlink" viewBox="0 0 511.999 511.999" xml:space="preserve" width="800px" height="800px" stroke="#dc2626">
<g id="SVGRepo_bgCarrier" stroke-width="0"/>
<g id="SVGRepo_tracerCarrier" stroke-linecap="round" stroke-linejoin="round"/>
<g id="SVGRepo_iconCarrier"> <g> <g> <path d="M445.972,150.49c-0.685-40.348-16.918-78.172-45.705-106.503C371.447,15.622,333.303,0,292.864,0 c-40.44,0-78.577,15.623-107.389,43.991c-26.99,26.574-42.937,61.498-45.375,99.023h-10.236 c-35.212,0-63.858,28.651-63.858,63.868v46.686c0,58.52,26.389,107.475,74.428,138.255v120.176h261.777V366.685 c28.655-29.945,43.781-68.984,43.781-113.116v-100.44C445.993,152.254,445.984,151.387,445.972,150.49z M387.001,496.789H155.645 v-15.214h231.355V496.789z M430.783,253.569L430.783,253.569c-0.001,41.147-14.374,77.336-41.566,104.655 c-24.583,24.695-58.314,41.045-97.545,47.279l2.386,15.022c5.056-0.803,10.03-1.764,14.914-2.879 c0.571-0.13,1.138-0.263,1.707-0.396c15.619-3.696,30.315-8.979,43.859-15.74c0.307-0.153,0.61-0.305,0.915-0.46 c0.036-0.018,0.075-0.039,0.112-0.057c11.339-5.747,21.863-12.537,31.438-20.305v85.678H155.645v-83.103l-4.269-2.529 c-45.243-27.761-70.159-72.922-70.159-127.163v-46.686c0-26.83,21.824-48.658,48.647-48.658h9.929v97.726h15.211V150.713 c0.624-36.324,15.234-70.375,41.142-95.884c25.949-25.548,60.297-39.618,96.718-39.618c36.422,0,70.776,14.07,96.734,39.616 c25.928,25.519,40.548,59.584,41.166,95.892c0.01,0.801,0.019,1.601,0.019,2.409V253.569z"/> </g> </g> <g> <g> <path d="M378.93,65.668c-23.096-22.729-53.66-35.247-86.065-35.247v15.211c28.388,0,55.163,10.965,75.395,30.877 c20.197,19.877,31.591,46.407,32.086,74.706l15.209-0.266C414.991,118.644,401.983,88.357,378.93,65.668z"/> </g> </g> <g> <g> <rect x="139.787" y="276.24" width="15.211" height="34.339"/> </g> </g> </g>
</svg>