<!DOCTYPE svg PUBLIC "-//W3C//DTD SVG 1.1//EN" "http://www.w3.org/Graphics/SVG/1.1/DTD/svg11.dtd">
<!-- Uploaded to: SVG Repo, www.svgrepo.com, Transformed by: SVG Repo Mixer Tools -->
<svg fill="#dc2626" height="800px" width="800px" version="1.1" id="Layer_1" xmlns="http://www.w3.org/2000/svg" xmlns:xlink="http://www.w3.org/1999/xlink" viewBox="0 0 512 512" xml:space="preserve" stroke="#dc2626">
<g id="SVGRepo_bgCarrier" stroke-width="0"/>
<g id="SVGRepo_tracerCarrier" stroke-linecap="round" stroke-linejoin="round"/>
<g id="SVGRepo_iconCarrier"> <g> <g> <path d="M399.386,22.328L326.358,0l-70.356,97.051L185.641,0l-73.028,22.328L0.989,127.27l59.041,91.397l48.907-22.487v65.475 v54.574V512h294.128V316.228v-54.574v-65.475l48.907,22.487l59.041-91.397L399.386,22.328z M124.105,496.831V316.228h69.998 v133.135h54.573V316.228h15.172v79.548h54.573v-79.548h69.474v180.603H124.105z M209.272,434.194V316.228h24.235v117.966H209.272z M279.016,380.607v-64.379h24.235v64.379H279.016z M446.363,199.392l-58.468-26.883v58.804h-77.058v15.169h77.058v15.172H183.531 v15.169h204.363v24.236H318.42h-54.573h-15.172h-54.573h-69.998v-24.235h39.2v-15.169h-39.2V172.51l-58.468,26.883l-45.046-69.732 l99.837-93.86l59.29-18.127l76.285,105.222l76.278-105.222l59.29,18.127l99.837,93.86L446.363,199.392z"/> </g> </g> </g>
</svg>